<svg width="78" height="78" viewBox="0 0 78 78" fill="none" xmlns="http://www.w3.org/2000/svg">
<path d="M65 14C65.5523 14 66 13.5523 66 13C66 12.4477 65.5523 12 65 12V13V14ZM10.9216 14.1716L11.6287 14.8787L10.9216 14.1716ZM10.9216 28.0784L10.2145 28.7855L10.9216 28.0784ZM9.75002 21.25H10.75V21H9.75002H8.75002V21.25H9.75002ZM17.75 13V14L65 14V13V12L17.75 12V13ZM17.75 29.25V30.25L43.875 30.25V29.25V28.25L17.75 28.25V29.25ZM9.75002 21H10.75C10.75 19.0861 10.7521 17.7513 10.8876 16.7442C11.0191 15.7658 11.2597 15.2477 11.6287 14.8787L10.9216 14.1716L10.2145 13.4645C9.41193 14.267 9.06674 15.2775 8.90539 16.4777C8.7479 17.649 8.75002 19.1426 8.75002 21H9.75002ZM17.75 13V12C15.8927 12 14.3991 11.9979 13.2277 12.1554C12.0275 12.3167 11.017 12.6619 10.2145 13.4645L10.9216 14.1716L11.6287 14.8787C11.9977 14.5097 12.5158 14.2691 13.4942 14.1375C14.5013 14.0021 15.8361 14 17.75 14V13ZM9.75002 21.25H8.75002C8.75002 23.1073 8.7479 24.601 8.90539 25.7723C9.06674 26.9725 9.41193 27.983 10.2145 28.7855L10.9216 28.0784L11.6287 27.3713C11.2597 27.0023 11.0191 26.4842 10.8876 25.5058C10.7521 24.4987 10.75 23.1639 10.75 21.25H9.75002ZM17.75 29.25V28.25C15.8361 28.25 14.5013 28.2479 13.4942 28.1125C12.5158 27.9809 11.9977 27.7403 11.6287 27.3713L10.9216 28.0784L10.2145 28.7855C11.017 29.5881 12.0275 29.9333 13.2277 30.0946C14.3991 30.2521 15.8927 30.25 17.75 30.25V29.25Z" fill="#027922"/>
<path d="M9.75 39V21.125" stroke="#027922" stroke-width="2"/>
<path d="M11.75 68.75C11.2927 68.75 10.8993 68.7511 10.5859 68.709C10.2582 68.6649 9.94424 68.5653 9.68945 68.3105C9.43466 68.0558 9.33509 67.7418 9.29102 67.4141C9.24888 67.1007 9.25 66.7073 9.25 66.25L9.25 28.75L66.25 28.75C66.7073 28.75 67.1007 28.7489 67.4141 28.791C67.7418 28.8351 68.0558 28.9347 68.3105 29.1895C68.5653 29.4442 68.6649 29.7582 68.709 30.0859C68.7511 30.3993 68.75 30.7927 68.75 31.25V39.5H56.75C54.8504 39.5 53.4759 39.5007 52.4277 39.6416C51.3939 39.7806 50.7528 40.048 50.2754 40.5254C49.798 41.0028 49.5306 41.6439 49.3916 42.6777C49.2507 43.7259 49.25 45.1004 49.25 47V50.5C49.25 52.3996 49.2507 53.7741 49.3916 54.8223C49.5306 55.8561 49.798 56.4972 50.2754 56.9746C50.7528 57.452 51.3939 57.7194 52.4277 57.8584C53.4759 57.9993 54.8504 58 56.75 58H68.75V66.25C68.75 66.7073 68.7511 67.1007 68.709 67.4141C68.6649 67.7418 68.5653 68.0558 68.3105 68.3105C68.0558 68.5653 67.7418 68.6649 67.4141 68.709C67.1007 68.7511 66.7073 68.75 66.25 68.75L11.75 68.75Z" fill="#027922" stroke="#027922"/>
</svg>
