<svg width="46" height="77" viewBox="0 0 46 77" fill="none" xmlns="http://www.w3.org/2000/svg">
<path d="M22.4965 46.318H2.59846C1.13533 46.318 0.403766 46.318 0.108683 45.8397C-0.1864 45.3613 0.141882 44.7075 0.798446 43.4L22.0464 1.08466C22.4239 0.333054 22.6126 -0.04275 22.8063 0.0031556C23 0.0490611 23 0.469582 23 1.31062V30.1037C23 30.3411 23 30.4598 23.0737 30.5335C23.1475 30.6072 23.2662 30.6072 23.5035 30.6072H43.4015C44.8647 30.6072 45.5962 30.6072 45.8913 31.0856C46.1864 31.564 45.8581 32.2177 45.2016 33.5253L23.9536 75.8406C23.5761 76.5922 23.3874 76.968 23.1937 76.9221C23 76.8762 23 76.4557 23 75.6146V46.8216C23 46.5842 23 46.4655 22.9263 46.3918C22.8525 46.318 22.7338 46.318 22.4965 46.318Z" fill="url(#paint0_linear_2346_6023)"/>
<defs>
<linearGradient id="paint0_linear_2346_6023" x1="23" y1="-0.814333" x2="23" y2="77.7396" gradientUnits="userSpaceOnUse">
<stop stop-color="#E2C000"/>
<stop offset="0.644231" stop-color="#CCAD00"/>
<stop offset="1" stop-color="#7C6900"/>
</linearGradient>
</defs>
</svg>
